{
  "version": "0.5.1",
  "modules": [
    {
      "plugin": "Core",
      "model": "AudioInterface",
      "pos": [
        840.0,
        0.0
      ],
      "params": [],
      "data": {
        "driver": 4,
        "device": 0,
        "sampleRate": 48000.0,
        "blockSize": 1024
      }
    },
    {
      "plugin": "Fundamental",
      "model": "VCO",
      "pos": [
        675.0,
        380.0
      ],
      "params": [
        1.0,
        1.0,
        0.0,
        0.0,
        0.5,
        0.0,
        0.0
      ]
    },
    {
      "plugin": "Fundamental",
      "model": "VCMixer",
      "pos": [
        630.0,
        0.0
      ],
      "params": [
        0.070500008761882782,
        0.25499993562698364,
        0.26700001955032349,
        0.20399999618530273
      ]
    },
    {
      "plugin": "Fundamental",
      "model": "VCO",
      "pos": [
        525.0,
        380.0
      ],
      "params": [
        1.0,
        1.0,
        0.0,
        0.0,
        0.5,
        0.0,
        0.0
      ]
    },
    {
      "plugin": "mtsch-plugins",
      "model": "Rationals",
      "pos": [
        555.0,
        1140.0
      ],
      "params": [
        3.0250008106231689,
        4.352501392364502,
        5.8825020790100098,
        7.9525041580200195,
        8.5150003433227539,
        7.1650056838989258,
        11.192502975463867,
        12.767499923706055
      ]
    },
    {
      "plugin": "AudibleInstruments",
      "model": "Links",
      "pos": [
        780.0,
        0.0
      ],
      "params": []
    },
    {
      "plugin": "mtsch-plugins",
      "model": "Sum",
      "pos": [
        885.0,
        1140.0
      ],
      "params": [
        1.0,
        1.0,
        1.0,
        1.0,
        1.0,
        1.0,
        1.0,
        1.0
      ]
    },
    {
      "plugin": "mtsch-plugins",
      "model": "Rationals",
      "pos": [
        480.0,
        0.0
      ],
      "params": [
        7.4350261688232422,
        8.1024932861328125,
        7.9975032806396484,
        8.9800119400024414,
        1.0,
        1.0,
        1.0,
        1.0
      ]
    },
    {
      "plugin": "Fundamental",
      "model": "SEQ3",
      "pos": [
        0.0,
        0.0
      ],
      "params": [
        2.0,
        0.0,
        0.0,
        8.0,
        0.0,
        2.6400001049041748,
        0.0,
        0.0,
        0.0,
        2.8800008296966553,
        0.0,
        0.0,
        0.0,
        4.9050006866455078,
        0.0,
        0.0,
        0.0,
        1.5000011920928955,
        0.0,
        0.0,
        0.0,
        1.7399997711181641,
        0.0,
        0.0,
        0.0,
        1.6349992752075195,
        0.0,
        0.0,
        0.0,
        1.6349996328353882,
        0.0,
        0.0,
        0.0,
        1.6799994707107544,
        0.0,
        0.0
      ],
      "data": {
        "running": true,
        "gates": [
          1,
          1,
          1,
          1,
          1,
          1,
          1,
          1
        ],
        "gateMode": 0
      }
    },
    {
      "plugin": "mtsch-plugins",
      "model": "Rationals",
      "pos": [
        330.0,
        0.0
      ],
      "params": [
        1.0,
        4.1500015258789062,
        1.0,
        1.0,
        1.0,
        1.0,
        1.0,
        1.0
      ]
    },
    {
      "plugin": "Fundamental",
      "model": "SEQ3",
      "pos": [
        0.0,
        380.0
      ],
      "params": [
        2.0,
        0.0,
        0.0,
        7.0,
        0.0,
        0.0,
        0.0,
        0.0,
        0.0,
        0.0,
        0.0,
        0.0,
        0.0,
        0.0,
        0.0,
        0.0,
        1.0949996709823608,
        0.0,
        0.0,
        0.0,
        0.86999994516372681,
        0.0,
        0.0,
        0.0,
        1.6949996948242188,
        0.0,
        0.0,
        0.0,
        1.7099997997283936,
        0.0,
        0.0,
        0.0,
        0.0,
        0.0,
        0.0,
        0.0
      ],
      "data": {
        "running": true,
        "gates": [
          1,
          1,
          1,
          1,
          1,
          1,
          1,
          1
        ],
        "gateMode": 0
      }
    },
    {
      "plugin": "Fundamental",
      "model": "Scope",
      "pos": [
        330.0,
        380.0
      ],
      "params": [
        0.0,
        0.0,
        0.0,
        0.0,
        -14.0,
        0.0,
        0.0,
        0.0
      ],
      "data": {
        "lissajous": 1,
        "external": 0
      }
    },
    {
      "plugin": "Fundamental",
      "model": "VCF",
      "pos": [
        825.0,
        380.0
      ],
      "params": [
        0.49849992990493774,
        0.5,
        0.42300039529800415,
        0.13199999928474426,
        0.40050008893013
      ]
    },
    {
      "plugin": "Fundamental",
      "model": "LFO",
      "pos": [
        945.0,
        380.0
      ],
      "params": [
        1.0,
        1.0,
        -1.1259996891021729,
        0.36450013518333435,
        0.51950031518936157,
        0.27600002288818359,
        0.0
      ]
    },
    {
      "plugin": "Fundamental",
      "model": "LFO2",
      "pos": [
        1095.0,
        380.0
      ],
      "params": [
        1.0,
        1.0,
        -4.1500000953674316,
        1.5,
        0.5
      ]
    }
  ],
  "wires": [
    {
      "outputModuleId": 2,
      "outputId": 0,
      "inputModuleId": 12,
      "inputId": 3
    },
    {
      "outputModuleId": 5,
      "outputId": 2,
      "inputModuleId": 0,
      "inputId": 0
    },
    {
      "outputModuleId": 5,
      "outputId": 1,
      "inputModuleId": 0,
      "inputId": 1
    },
    {
      "outputModuleId": 1,
      "outputId": 3,
      "inputModuleId": 11,
      "inputId": 1
    },
    {
      "outputModuleId": 7,
      "outputId": 1,
      "inputModuleId": 1,
      "inputId": 0
    },
    {
      "outputModuleId": 3,
      "outputId": 3,
      "inputModuleId": 11,
      "inputId": 0
    },
    {
      "outputModuleId": 3,
      "outputId": 3,
      "inputModuleId": 2,
      "inputId": 1
    },
    {
      "outputModuleId": 1,
      "outputId": 3,
      "inputModuleId": 2,
      "inputId": 3
    },
    {
      "outputModuleId": 8,
      "outputId": 2,
      "inputModuleId": 9,
      "inputId": 4
    },
    {
      "outputModuleId": 9,
      "outputId": 0,
      "inputModuleId": 7,
      "inputId": 0
    },
    {
      "outputModuleId": 7,
      "outputId": 0,
      "inputModuleId": 3,
      "inputId": 0
    },
    {
      "outputModuleId": 9,
      "outputId": 0,
      "inputModuleId": 7,
      "inputId": 1
    },
    {
      "outputModuleId": 10,
      "outputId": 1,
      "inputModuleId": 9,
      "inputId": 5
    },
    {
      "outputModuleId": 8,
      "outputId": 4,
      "inputModuleId": 10,
      "inputId": 1
    },
    {
      "outputModuleId": 12,
      "outputId": 0,
      "inputModuleId": 5,
      "inputId": 0
    },
    {
      "outputModuleId": 13,
      "outputId": 0,
      "inputModuleId": 12,
      "inputId": 0
    },
    {
      "outputModuleId": 8,
      "outputId": 2,
      "inputModuleId": 13,
      "inputId": 0
    },
    {
      "outputModuleId": 14,
      "outputId": 0,
      "inputModuleId": 13,
      "inputId": 1
    }
  ]
}